<svg xmlns="http://www.w3.org/2000/svg" width="18.664" height="18.664" viewBox="0 0 18.664 18.664">
  <path id="twitter-square" d="M16.664,32H2a2,2,0,0,0-2,2V48.664a2,2,0,0,0,2,2H16.664a2,2,0,0,0,2-2V34A2,2,0,0,0,16.664,32Zm-2.037,6.616c.008.117.008.237.008.354a7.721,7.721,0,0,1-7.774,7.774,7.738,7.738,0,0,1-4.2-1.225,5.755,5.755,0,0,0,.658.033,5.478,5.478,0,0,0,3.391-1.166,2.736,2.736,0,0,1-2.554-1.9,2.945,2.945,0,0,0,1.233-.05,2.733,2.733,0,0,1-2.187-2.683v-.033a2.73,2.73,0,0,0,1.233.346,2.727,2.727,0,0,1-1.216-2.275A2.7,2.7,0,0,1,3.6,36.416a7.758,7.758,0,0,0,5.632,2.858,2.738,2.738,0,0,1,4.662-2.5,5.354,5.354,0,0,0,1.733-.658,2.725,2.725,0,0,1-1.2,1.5A5.438,5.438,0,0,0,16,37.2,5.751,5.751,0,0,1,14.627,38.616Z" transform="translate(0 -32)" fill="#fff"/>
</svg>
